<?xml version="1.0" encoding="utf-8"?>
<!-- Generator: Adobe Illustrator 24.2.0, SVG Export Plug-In . SVG Version: 6.00 Build 0)  -->
<svg version="1.1" id="Layer_1" xmlns="http://www.w3.org/2000/svg" xmlns:xlink="http://www.w3.org/1999/xlink" x="0px" y="0px"
	 viewBox="0 0 1000 1000" style="enable-background:new 0 0 1000 1000;" xml:space="preserve">
<style type="text/css">
	.st0{fill:#673918;}
	.st1{fill:#FFFFFF;}
</style>
<g>
	<path class="st0" d="M882.5,500c0,208.6-171.3,377.8-382.5,377.8c-211.3,0-382.6-169.2-382.6-377.8
		c0-208.6,171.3-377.7,382.6-377.7C711.3,122.2,882.5,291.3,882.5,500"/>
	<path class="st1" d="M323.2,562.4c26.9-8.5,54.5-20.1,54.5-65.6c0-62.7-42.5-70.2-82.6-70.2h-56.6v4.2c13,0,21.1,1.5,21.1,17.2
		l-0.1,114.2c7.5-1.1,21.6-3.7,21.6-20.1v-89.7c0-16.4,1.9-17.6,14-17.6c45.9,0,58.7,23.3,58.7,62c0,34.8-12,51.2-43.6,61.3
		c-27,8.5-54.2,20.2-54.2,65.7c0,23.8,6.1,39.6,15.9,50.1c11.3,13.6,28.9,21,54,21c21.7,0,43.2-4.5,50.1-5.9v-71.9h-44.9v3.4
		c20.7,2.9,24.1,4.4,24.1,20.5v43c-6.2,1.3-10,1.7-16.8,1.8v0c-5,0-9.6-0.3-13.8-0.8c-34.3-5.4-44.1-34.1-44.8-63.5
		C280.4,588.1,292.3,572.2,323.2,562.4 M696.6,684.4c-22.4,0-26.8-27.4-26.8-45.7c0-18.4,4.5-45.8,26.8-45.8
		c22.4,0,26.9,27.4,26.9,45.8C723.5,657,719,684.4,696.6,684.4 M696.6,585.6c-28.7,0-46.7,20-46.7,53.1c0,33.1,18,53,46.7,53
		c28.7,0,46.8-19.9,46.8-53C743.5,605.6,725.4,585.6,696.6,585.6 M619.8,665v-69.9h26.9v-7.2h-26.9v-28.6c7.4-0.5,13.2-1.7,18-3.5
		v-6.7c-4.2,0.9-8.6,1.8-13.1,1.8c-32.4,0-51.8-28.1-51.8-57.3c0-25.5,12.2-37.1,28-37.1c10.7,0,15,4.9,16.2,9.9
		c1.9,7.6,3.7,14.7,12.6,14.7c6.1,0,10.9-4.1,10.9-10.8c0-16.8-20.8-21.4-36.7-21.4c-35.9,0-50.4,21.4-50.4,52.1
		c0,35.7,18.2,58.5,59.3,58.5c0.3,0,0.6,0,0.9,0c-1.5,20.5-12.7,28.4-29.6,28.4v7.2h18.1v63.7c0,24.8,1.8,32.9,35.6,32.9
		c3.6,0,7.2-0.4,10.8-0.8v-7.6c-3.1,0.5-6.1,1.2-9,1.2C627.4,684.4,619.8,681.8,619.8,665 M558.2,632.9c-12.9-7-32.6-13.5-32.6-26
		c0-10.4,10.6-14,19.1-14c16.3,0,21.7,12.4,23.5,19.7h5.8l-1.6-23.2c-5.1-1.5-17.1-3.8-26.5-3.8c-18.8,0-38.2,6.8-38.2,27.4
		c0,9.1,2.8,14.6,12,21c12.6,9.1,42.1,16.8,42.1,32.5c0,7.6-7.8,18-22.7,18c-19.4,0-24.9-13.5-27.2-21.3H506l1.6,24.6
		c6.2,2,16.8,4,29.7,4c25.5,0,42.4-10.8,42.4-29.8C579.7,645.3,570,639.1,558.2,632.9 M549.8,552.9c-9.9,0-17.9-2.1-17.9-17.2V417.1
		l-36.3,5.5v4c7.1,0.7,17.9,1.4,17.9,15.1v93.9c0,15.1-8,17.2-17.9,17.2v3.9h54.3V552.9z M467.4,585.7l0.2,53.8
		c0,20.2-12.8,40.9-27.3,40.9c-11.7,0-18-8.6-18-27V585l-34.5,0v3.8c6.7,0.4,17,1.1,17,14.4v55.2c0,20.6,9.8,33.3,28.6,33.3
		c23.9,0,30.7-19.2,33.6-26.5h0.5v25.9l17.5,0.3l-0.1-105.7L467.4,585.7z M720.1,484.6H673c0-8.5,7.2-28.1,24.9-28.1
		C715.9,456.5,720.1,472.4,720.1,484.6 M653.6,501.2c0,38.7,20.3,58.3,56.4,58.3c14.3,0,22.2-2.1,27.8-4.2V548c-4.6,2.3-11,3-16.3,3
		c-39,0-48.6-39.4-48.6-58.8h67.9v-5.1c0-26.7-18.9-38.2-39.9-38.2C667.3,448.9,653.6,467.6,653.6,501.2 M443.3,551.9
		c-23.3,0-28.1-28.6-28.1-47.7c0-19.1,4.8-47.7,28.1-47.7c23.3,0,28,28.6,28,47.7C471.3,523.3,466.7,551.9,443.3,551.9 M443.3,448.9
		c-29.9,0-48.7,20.7-48.7,55.2c0,34.6,18.8,55.3,48.7,55.3c29.8,0,48.8-20.8,48.8-55.3C492.1,469.7,473.1,448.9,443.3,448.9
		 M700.1,386.2h1.7c0.9,0,1.3,0.1,1.3,0.8c0,0.8-0.5,0.9-1.3,0.9h-1.7V386.2z M700.1,388.9h1.2l1.7,3.1h1.3l-1.9-3.2
		c0.8,0,1.8-0.3,1.8-1.7c0-1.4-0.8-1.8-2.4-1.8h-2.7v6.8h1V388.9z M517,336.4c5.1,0,11.4,3.4,13,9.4l0.3,0.1l5.4-14.1
		c-1.3-2.2-8.3-6.5-18.8-6.5c-21.9,0-35.5,14.5-35.5,35.7c0,25,18.2,34.9,30.3,34.9c11.3,0,16.8-4,20.5-17.4l-0.4-0.1
		c-0.4,0.7-3.1,5.5-11.1,5.5c-8.3,0-20.4-5.4-20.4-25.6C500.3,340.1,511.9,336.4,517,336.4 M450.7,384.7
		c-13.3,0-16.3-12.2-16.3-12.2l-0.4-0.1l-3.8,16.4c4.5,4.1,13,7.1,19.9,7.1c10,0,28.7-2.8,28.7-23.2c0-4.4-2.1-13.1-14.2-19
		c-2.1-0.9-7.7-3.6-11.1-5.3c-2-0.9-4.9-2.7-4.9-6.2c0-4.2,5.3-6,8.6-6c9.2,0,13.3,7.1,13.6,9.6l0.4,0l4.5-15
		c-2.7-2.3-8.6-5.6-18.3-5.6c-10.9,0-25.9,5-25.9,22c0,10,7.4,15.2,11.5,17.2c3.2,1.6,8.2,3.8,11.6,5.7c3.4,1.8,6,3.8,6,7.3
		C460.7,380.7,458.1,384.7,450.7,384.7 M681.2,338.9c6.6,0.1,6.8,5,6.8,5h0.4l2.3-16.5h-48.5v0.5c4.6,0.2,4.6,15.9,4.6,22.7V386
		c0,5.6,1.4,8,1.4,8h41.3l4.2-17.4l-0.4,0c0,0-1.8,3.6-10.1,5.4c-7.1,1.7-17,0.3-17,0.3V364l14.6,0.1c3.6,0.1,3.6,1.9,3.6,1.9h0.3
		l2.1-13.3l-20.6,0.1v-14.2L681.2,338.9z M630.7,338.9c6.6,0.1,6.9,5,6.9,5h0.3l2.3-16.5h-47.9v0.5c4.6,0.2,4.6,15.9,4.6,22.7V386
		c0,5.6,1.4,8,1.4,8h22v-0.3c0,0-4-0.7-4-8.7V364c1.6,0,10.6,0.1,14,0.1c3.5,0.1,3.7,1.9,3.7,1.9h0.4l2-13.3l-20.1,0.1v-14.2
		L630.7,338.9z M557.1,346.1l6.5,21.5h-12.6L557.1,346.1z M548.1,378.3h18.8l2.3,7.5c2.2,6.9,3.9,8.2,3.9,8.2h22.3v-0.3
		c-2.1-0.3-3.6-3-4.5-5.8l-20.7-60.5h-22.6v0.5c2.6,0.5,3.5,2.8,2.3,6.6L530.9,394h17.5v-0.3c-1-0.3-2.9-1.6-2.5-5.8
		C546.2,384.7,548.1,378.3,548.1,378.3 M428.8,376.6l-0.5,0c0,0-1.7,3.6-10.2,5.4c-7,1.7-17,0.3-17,0.3V364l14.6,0.1
		c3.6,0.1,3.7,1.9,3.7,1.9h0.3l2.1-13.3l-20.6,0.1v-14.2l14.9,0.2c6.6,0.1,6.9,5,6.9,5h0.4l2.3-16.5h-48.5v0.5
		c4.6,0.2,4.6,15.9,4.6,22.7V386c0,5.6,1.4,8,1.4,8h41.3L428.8,376.6z M313.6,391.2l-0.4-54.3c5.5,8.1,33.2,51,33.2,51
		c1.5,2.2,3.7,6.1,8.1,6.1h16.8c0,0-1.2-4.1-1.2-17.1v-59.5h258.6c3.9,0,11.5-2.3,16.6-12.8l-0.4-0.2c-0.6,0.6-1.3,0.8-3.7,0.8
		H349.9v0.5c0,0,4.2,2.3,4.2,19.7l0.3,34.8c-4.6-8.1-27.4-43.8-34-51.4c-2.5-2.8-5.2-3.6-8.6-3.6h-19v0.5c0.9,0.5,4.8,2.7,4.8,21.8
		v44c0,19.9-4.8,22.1-4.8,22.1v0.5h17.8C312.8,394,313.6,392.8,313.6,391.2 M701.4,383.5c2.8,0,5.2,2.2,5.2,5c0,2.9-2.3,5.1-5.2,5.1
		c-2.8,0-5.1-2.2-5.1-5.1C696.3,385.7,698.6,383.5,701.4,383.5 M701.4,394.6c3.4,0,6.1-2.6,6.1-6c0-3.3-2.7-6-6.1-6
		c-3.4,0-6.1,2.7-6.1,6C695.3,392,698,394.6,701.4,394.6 M679.6,315.8c6.4-3.8,8-10.5,7.7-16.7l-0.5-0.2c0,0-2.8,2.7-14.1,8.2
		c-11.4,5.4-26.3,10.9-26.3,10.9v0.5C646.4,318.3,671.6,320.4,679.6,315.8 M742.7,700.1c-3.3,0-6-2.4-6.5-5.5c1.1,0.6,2.3,0.9,3.6,1
		v2.3h1.7v-2.4c0.5-0.1,1-0.2,1.5-0.4l1.5,2.8h1.9l-1.9-3.5c1.8-1.1,3-2.8,3.6-4.8c0.8,1.1,1.3,2.5,1.3,4
		C749.3,697.2,746.4,700.1,742.7,700.1 M737.2,689.8v2h1.7v-3.5h1.1l0.4,0.7h-0.5v5.1c-1.4,0-2.6-0.5-3.7-1.3
		C736.3,691.7,736.6,690.7,737.2,689.8 M733.5,687.5c0-3.7,2.9-6.6,6.6-6.6c3.3,0,5.9,2.3,6.4,5.4c-1-0.5-2-0.8-3.1-0.9
		c-0.2-1.3-1.3-2.3-2.8-2.3h-3.3v4.4c-1.2,1.1-2,2.4-2.4,4C734,690.3,733.5,689,733.5,687.5 M743.2,689h-1.1l-0.5-0.9
		c0.6-0.2,1.2-0.6,1.5-1.3c1.3,0.1,2.4,0.5,3.4,1.2c-0.1,0.9-0.3,1.8-0.7,2.5C745.4,689.7,744.4,689,743.2,689 M738.9,686.3v-1.9
		h1.5c0.7,0,1.1,0.4,1.3,1C740.6,685.6,739.7,685.9,738.9,686.3 M741.5,691.4l0.3,0.5h1.9l-0.8-1.4h0.1c0.8,0,1.4,0.6,1.4,1.3
		c0,0.8-0.6,1.4-1.4,1.4h-1.5V691.4z M748.3,687.5c0-4.5-3.7-8.1-8.2-8.1c-4.5,0-8.2,3.6-8.2,8.1c0,2.4,1,4.5,2.7,5.9c0,0,0,0,0,0.1
		c0,4.5,3.7,8.1,8.2,8.1s8.3-3.6,8.3-8.1C751,691.1,749.9,688.9,748.3,687.5"/>
</g>
</svg>
